
<svg width="64px" height="64px" viewBox="0 0 64 64" version="1.1" xmlns="http://www.w3.org/2000/svg" xmlns:xlink="http://www.w3.org/1999/xlink">
    <title>measure_pressure</title>
    <g id="measure_pressure" stroke="none" stroke-width="1" fill="none" fill-rule="evenodd">
        <path d="M25.3664125,52.2172241 L23.622516,52.2172241 L23.6151918,51.052948 L25.1316713,51.052948 C25.3659242,51.052948 25.5627931,51.0094299 25.722278,50.9223938 C25.8817629,50.8353577 26.0015138,50.7075958 26.0815309,50.5391083 C26.161548,50.3706207 26.2015566,50.1661377 26.2015566,49.9256592 C26.2015566,49.652832 26.1647829,49.4327545 26.0912355,49.2654266 C26.0176882,49.0980988 25.9028658,48.9753876 25.7467684,48.8972931 C25.5906709,48.8191986 25.3884157,48.7801514 25.1400026,48.7801514 L24.1234926,48.7801514 L24.1234926,56 L22.5529054,56 L22.5529054,47.46875 L25.1400026,47.46875 C25.5511965,47.46875 25.9189638,47.51474 26.2433046,47.60672 C26.5676454,47.6987 26.8436617,47.840744 27.0713533,48.0328522 C27.299045,48.2249603 27.4727663,48.4661407 27.5925173,48.7563934 C27.7122682,49.0466461 27.7721437,49.3909912 27.7721437,49.7894287 C27.7721437,50.1389771 27.6997408,50.460968 27.5549349,50.7554016 C27.410129,51.0498352 27.1899599,51.2901764 26.8944277,51.4764252 C26.5988954,51.662674 26.2240785,51.7699585 25.769977,51.7982788 L25.3664125,52.2172241 Z M25.3101076,56 L23.1452516,56 L23.8146852,54.694458 L25.3101076,54.694458 C25.5505861,54.694458 25.7463106,54.6431274 25.8972811,54.5404663 C26.0482515,54.4378052 26.1606935,54.2958374 26.2346071,54.114563 C26.3085207,53.9332886 26.3454775,53.7240601 26.3454775,53.4868774 C26.3454775,53.227356 26.3132204,53.0021973 26.2487062,52.8114014 C26.1841921,52.6206055 26.0806459,52.473877 25.9380678,52.3712158 C25.7954897,52.2685547 25.6049379,52.2172241 25.3664125,52.2172241 L23.9120973,52.2172241 L23.9238161,51.052948 L25.7372926,51.052948 L26.1030458,51.5044861 C26.5353578,51.5031433 26.8843721,51.5975342 27.1500887,51.7876587 C27.4158052,51.9777832 27.6086611,52.2249146 27.7286562,52.5290527 C27.8486513,52.8331909 27.9086488,53.1571655 27.9086488,53.5009766 C27.9086488,54.0465088 27.8072389,54.5044403 27.6044191,54.8747711 C27.4015993,55.2451019 27.1069521,55.5252228 26.7204775,55.7151337 C26.3340029,55.9050446 25.8638796,56 25.3101076,56 Z M32.2620844,48.815033 L30.3100885,56 L28.6618646,56 L31.3486627,47.46875 L32.3785394,47.46875 L32.2620844,48.815033 Z M33.8076776,56 L31.8511957,48.815033 L31.7167047,47.46875 L32.7615961,47.46875 L35.4646906,56 L33.8076776,56 Z M33.8590387,52.8251343 L33.8590387,54.1321411 L29.945434,54.1321411 L29.945434,52.8251343 L33.8590387,52.8251343 Z M36.359728,47.46875 L39.0186025,47.46875 C39.5843984,47.46875 40.0657522,47.5664062 40.4626638,47.7617188 C40.8595754,47.9570312 41.1628743,48.2456207 41.3725606,48.6274872 C41.5822469,49.0093536 41.68709,49.4811707 41.68709,50.0429382 C41.68709,50.4875183 41.6241628,50.872467 41.4983083,51.1977844 C41.3724538,51.5231018 41.1926137,51.7949982 40.958788,52.0134735 C40.7249624,52.2319489 40.444048,52.4030151 40.1160451,52.5266724 L39.6451894,52.7976685 L37.4457265,52.7976685 L37.4384023,51.4891052 L38.9796926,51.4891052 C39.2352468,51.4891052 39.4476339,51.4327698 39.6168538,51.3200989 C39.7860738,51.207428 39.9126149,51.0500641 39.9964772,50.8480072 C40.0803396,50.6459503 40.1222707,50.4131775 40.1222707,50.1496887 C40.1222707,49.8673401 40.0843831,49.623703 40.008608,49.4187775 C39.9328328,49.2138519 39.8142873,49.0561829 39.6529714,48.9457703 C39.4916555,48.8353577 39.2801992,48.7801514 39.0186025,48.7801514 L37.9303151,48.7801514 L37.9303151,56 L36.359728,56 L36.359728,47.46875 Z M40.2856923,56 L38.6888295,52.1817932 L40.3314687,52.1773071 L41.9647695,55.9205322 L41.9647695,56 L40.2856923,56 Z" id="Shape" fill="#000000" fill-rule="nonzero"></path>
        <path d="M48.9705627,15.0294373 C58.3431458,24.4020203 58.3431458,39.5979797 48.9705627,48.9705627 C48.1895142,49.7516113 46.9231842,49.7516113 46.1421356,48.9705627 C45.361087,48.1895142 45.361087,46.9231842 46.1421356,46.1421356 C53.9526215,38.3316498 53.9526215,25.6683502 46.1421356,17.8578644 C38.3316498,10.0473785 25.6683502,10.0473785 17.8578644,17.8578644 C10.0473785,25.6683502 10.0473785,38.3316498 17.8578644,46.1421356 C18.638913,46.9231842 18.638913,48.1895142 17.8578644,48.9705627 C17.0768158,49.7516113 15.8104858,49.7516113 15.0294373,48.9705627 C5.65685425,39.5979797 5.65685425,24.4020203 15.0294373,15.0294373 C24.4020203,5.65685425 39.5979797,5.65685425 48.9705627,15.0294373 Z M46.3503755,24.914384 C49.3037248,30.8942303 48.2915025,38.3359145 43.3137085,43.3137085 C42.9231842,43.7042328 42.2900192,43.7042328 41.8994949,43.3137085 C41.5089706,42.9231842 41.5089706,42.2900192 41.8994949,41.8994949 C46.0088576,37.7901323 47.0295407,31.7617103 44.9615444,26.6990361 L46.3503755,24.914384 Z M39.085616,17.6496245 L37.3009639,19.0384556 C32.2382897,16.9704593 26.2098677,17.9911424 22.1005051,22.1005051 C16.633165,27.5678451 16.633165,36.4321549 22.1005051,41.8994949 C22.4910294,42.2900192 22.4910294,42.9231842 22.1005051,43.3137085 C21.7099808,43.7042328 21.0768158,43.7042328 20.6862915,43.3137085 C14.4379028,37.0653198 14.4379028,26.9346802 20.6862915,20.6862915 C25.6640855,15.7084975 33.1057697,14.6962752 39.085616,17.6496245 Z M41.8172495,20.5931253 C42.2681973,20.2423882 42.9097466,20.2823296 43.3137085,20.6862915 C43.7176704,21.0902534 43.7576118,21.7318027 43.4068747,22.1827505 L34.5754268,33.5399515 C34.4512826,33.7472183 34.2999138,33.9427269 34.1213203,34.1213203 C32.9497475,35.2928932 31.0502525,35.2928932 29.8786797,34.1213203 C28.7071068,32.9497475 28.7071068,31.0502525 29.8786797,29.8786797 C30.059059,29.6983003 30.2566936,29.5456928 30.46627,29.420857 L41.8172495,20.5931253 Z" id="Shape" fill="#000000" fill-rule="nonzero"></path>
    </g>
</svg>